<?xml version="1.0" encoding="UTF-8"?>
<svg id="Layer_2" data-name="Layer 2" xmlns="http://www.w3.org/2000/svg" viewBox="0 0 30.46 30.46">
  <defs>
    <style>
      .cls-1 {
        fill: #7592cc;
      }
    </style>
  </defs>
  <g id="Layer_1-2" data-name="Layer 1">
    <path class="cls-1" d="M15.23,0C6.83,0,0,6.83,0,15.23s6.83,15.23,15.23,15.23,15.23-6.83,15.23-15.23S23.63,0,15.23,0ZM15.23,2.45c3.4,0,6.48,1.34,8.77,3.51L5.25,23.19c-1.75-2.19-2.8-4.95-2.8-7.96,0-7.05,5.73-12.78,12.78-12.78ZM15.23,28.01c-3.16,0-6.04-1.16-8.28-3.06L25.61,7.81c1.5,2.1,2.4,4.65,2.4,7.42,0,7.05-5.73,12.78-12.78,12.78Z"/>
  </g>
</svg>