<?xml version="1.0" encoding="UTF-8"?>
<svg id="Layer_2" data-name="Layer 2" xmlns="http://www.w3.org/2000/svg" viewBox="0 0 28.28 29.79">
  <defs>
    <style>
      .cls-1 {
        fill: #7592cc;
      }
    </style>
  </defs>
  <g id="Layer_1-2" data-name="Layer 1">
    <g>
      <path class="cls-1" d="M1.4,29.79c-.89-.25-1.34-.86-1.4-1.77V1.72C.08.77.68.05,1.66,0h13.21s.31.09.31.09l6.95,6.89.03,8.44c3.2.08,5.97,2.83,6.05,6.03l.06.14v.47l-.21,1.33c-.67,2.7-3.1,4.72-5.89,4.84-.02.79-.61,1.35-1.34,1.57H1.4ZM14.72.7H1.49c-.37,0-.83.7-.79,1.07v26.24c.02.54.38,1.06.96,1.08h18.85c.5-.03.92-.36.96-.87-2.4-.13-4.5-1.63-5.51-3.78H7.19c-.69-.07-.42-.7-.29-.7h8.73l.06-.12c-.48-1.5-.3-3.11.31-4.53H6.95c-.23,0-.37-.64.11-.7h9.3c.09-.04.47-.62.59-.75,1.15-1.29,2.76-2.15,4.51-2.21v-7.91h-5.09c-.62,0-1.66-.7-1.66-1.37v-1.72H5.09c-.35,0-.23-.7,0-.7h9.63V.7ZM20.89,6.81L15.42,1.34v4.74c0,.29.67.73.96.73h4.51ZM21.11,16.14c-4.01.39-6.19,5.02-4.26,8.48,2.44,4.38,9.07,3.65,10.47-1.16,1.18-4.05-2.06-7.72-6.21-7.31Z"/>
      <path class="cls-1" d="M19.13,13.17c.15.15.09.55-.16.6l-11.84.03c-.44.01-.56-.64-.12-.7h11.81c.09,0,.24.01.3.07Z"/>
      <path class="cls-1" d="M19.13,8.37c-.06.06-.21.07-.3.07H7.13c-.55.03-.51-.68,0-.7l11.84.03c.25.05.31.45.16.6Z"/>
      <path class="cls-1" d="M3.24,7.46c.31-.07,1.95-.06,2.32-.01.22.03.35.09.38.32.06.43.06,1.91,0,2.33-.03.23-.17.29-.38.32-.5.06-1.65.05-2.16,0-.28-.03-.4-.08-.43-.38-.06-.47-.06-1.74,0-2.21.02-.19.08-.32.28-.36ZM5.24,8.15h-1.57v1.57h1.57v-1.57Z"/>
      <path class="cls-1" d="M3.24,18.11c.29-.07,2.04-.06,2.38-.02.19.03.29.12.32.32.06.47.04,1.72,0,2.22-.03.28-.08.4-.38.43-.44.05-1.78.06-2.21,0-.2-.03-.35-.18-.38-.38-.06-.43-.05-1.77,0-2.22.02-.19.08-.32.28-.36ZM5.24,18.8h-1.57v1.57h1.57v-1.57Z"/>
      <path class="cls-1" d="M3.3,23.4c.34-.08,1.74-.05,2.14-.01.3.02.46.05.49.38.05.46.06,1.82,0,2.27-.03.19-.12.29-.32.32-.43.06-1.9.06-2.33,0-.23-.03-.29-.17-.32-.38-.05-.46-.05-1.69,0-2.16.02-.2.12-.38.33-.42ZM5.24,24.09h-1.57v1.57h1.57v-1.57Z"/>
      <path class="cls-1" d="M5.86,12.87c.07.09.07.2.07.3.05.55.05,1.61,0,2.16-.02.22-.08.35-.32.38-.43.06-1.9.06-2.33,0-.22-.03-.29-.16-.32-.38-.04-.32-.05-2.06.03-2.3.05-.15.14-.21.29-.23.49-.07,1.76-.04,2.27,0,.11,0,.21,0,.3.07ZM5.24,13.5h-1.57v1.51h1.57v-1.51Z"/>
      <path class="cls-1" d="M7.03,14.74h7.9c.45,0,.54.63.06.69h-7.92c-.44,0-.44-.6-.04-.69Z"/>
      <path class="cls-1" d="M6.97,20.09l8.02-.02c.48.06.39.69-.06.7h-7.8c-.33-.04-.44-.22-.37-.54l.21-.14Z"/>
      <path class="cls-1" d="M6.82,26c-.18-.18-.06-.64.24-.63h7.86c.45,0,.54.64.06.7h-7.86c-.09,0-.24-.01-.3-.08Z"/>
      <path class="cls-1" d="M6.82,9.5c.06-.06.21-.07.3-.07h7.86c.48.06.39.69-.06.7l-7.99-.05c-.22-.06-.25-.45-.12-.58Z"/>
      <path class="cls-1" d="M21.47,22.11c-2.93-.26-2.92-3.73,0-4.01.02-.35-.14-1.15.43-1.05.41.07.23.74.27,1.05.76.03,1.64.48,2.01,1.16.17.31.47,1.07-.03,1.2-.45.12-.41-.57-.55-.85-.24-.47-.92-.79-1.43-.81v2.68c1.44.16,2.83,1.4,2.01,2.91-.38.69-1.24,1.1-2.01,1.16-.04.32.17,1.09-.37,1.04-.45-.04-.3-.73-.33-1.04-.83-.09-1.8-.59-2.1-1.42-.1-.28-.25-.83.13-.95.53-.16.42.45.54.75.2.51.92.85,1.44.92v-2.73ZM21.47,18.8c-2,.24-2.01,2.41,0,2.62v-2.62ZM22.17,24.85c1.5-.12,2.27-1.78.66-2.49-.15-.07-.55-.23-.66-.1v2.59Z"/>
    </g>
  </g>
</svg>