<?xml version="1.0" encoding="UTF-8"?>
<svg id="Layer_2" data-name="Layer 2" xmlns="http://www.w3.org/2000/svg" viewBox="0 0 33.6 28.01">
  <defs>
    <style>
      .cls-1 {
        fill: #7592cc;
      }
    </style>
  </defs>
  <g id="Layer_1-2" data-name="Layer 1">
    <g>
      <path class="cls-1" d="M32.27,0c.67.22,1.09.67,1.33,1.33v21.43c-.25.69-.75,1.23-1.51,1.33H13.76c-1.98,3.52-6.16,4.97-9.84,3.11-4.45-2.25-5.23-8.3-1.69-11.76v-2.51c-.46-.24-.91-.34-1.26-.78-.92-1.18-.27-2.87,1.19-3.15l.06-.08V1.44c.15-.73.67-1.2,1.34-1.44h28.72ZM14.2,22.97h17.9c.16,0,.45-.4.39-.59l-.06-20.96c-.11-.21-.3-.31-.54-.3H3.93c-.19-.06-.59.23-.59.39v7.63l.17.1,2.81-2.52c-.71-1.65.87-3.36,2.57-2.65,1.04.44,1.52,1.79.9,2.77l.02.15,2.19,1.74c.78-.44,1.48-.44,2.27-.02l3.19-2.63c-.33-1.09.1-2.26,1.22-2.62,2.84-.92,3.63,3.71.66,3.82-.51.02-.79-.23-1.22-.32l-3.14,2.57c.94,3.64-4.52,3.72-3.68.06l-2.35-1.86c-.36,0-.62.14-1.01.11-.31-.02-.55-.17-.83-.27l-2.81,2.51c.45,1.03,0,2.1-.94,2.63v1.86c.41-.17.78-.43,1.19-.59,5.75-2.33,11.55,3.15,9.67,9ZM19.16,4.5c-1.01.16-.84,1.77.25,1.66s.92-1.85-.25-1.66ZM7.95,5.06c-1.01.16-.84,1.77.25,1.66s.92-1.85-.25-1.66ZM12.99,9.54c-1.01.16-.84,1.77.25,1.66s.92-1.85-.25-1.66ZM2.34,10.1c-1.01.16-.84,1.77.25,1.66,1.09-.1.92-1.85-.25-1.66ZM6.7,14.56c-3.61.43-6.1,3.59-5.51,7.23.03.21.26,1.27.44,1.31l5.07-2.76v-5.78ZM13.43,20.17c-.34-2.97-2.63-5.27-5.6-5.6v5.6h5.6ZM13.43,21.29h-6.06l-5.22,2.84c3.19,4.86,10.69,2.89,11.28-2.84Z"/>
      <path class="cls-1" d="M18.47,20.73v-6.41c0-.18.34-.59.49-.7.39-.25,1.82-.26,2.24-.07.22.1.63.54.63.77v6.41h.56v-8.09c0-.18.34-.59.49-.7.39-.25,1.82-.26,2.24-.07.22.1.63.54.63.77v8.09h.56v-4.73c0-.18.34-.59.49-.7.39-.25,1.82-.26,2.24-.07.22.1.63.54.63.77v4.73h1.3c.38,0,.68,1.03-.14,1.12h-12.47c-.83-.07-1.5-.74-1.58-1.57-.26-2.89.2-6.18,0-9.11.04-.67,1.02-.72,1.12-.06v9.1c.02.3.26.54.56.52ZM24.64,12.88h-1.12v7.84h1.12v-7.84ZM20.71,14.56h-1.12v6.16h1.12v-6.16ZM28.56,16.24h-1.12v4.48h1.12v-4.48Z"/>
      <path class="cls-1" d="M25.04,3.38h5.3c.62.09.65,1.02-.06,1.11-1.6.18-3.55-.14-5.18,0-.59-.09-.63-.93-.06-1.1Z"/>
      <path class="cls-1" d="M25.04,5.62h5.3c.62.09.65,1.02-.06,1.11-1.6.18-3.55-.14-5.18,0-.59-.09-.63-.93-.06-1.1Z"/>
      <path class="cls-1" d="M25.04,7.86h5.3c.62.09.65,1.02-.06,1.11-1.6.18-3.55-.14-5.18,0-.59-.09-.63-.93-.06-1.1Z"/>
      <path class="cls-1" d="M23.36,3.37c.82-.18.96.95.32,1.09-.82.18-.96-.95-.32-1.09Z"/>
      <path class="cls-1" d="M23.36,5.62c.82-.18.96.95.32,1.09-.82.18-.96-.95-.32-1.09Z"/>
      <path class="cls-1" d="M23.36,7.86c.82-.18.96.95.32,1.09-.82.18-.96-.95-.32-1.09Z"/>
    </g>
  </g>
</svg>