<?xml version="1.0" encoding="UTF-8"?>
<svg id="Layer_2" data-name="Layer 2" xmlns="http://www.w3.org/2000/svg" viewBox="0 0 29.11 29.1">
  <defs>
    <style>
      .cls-1 {
        fill: none;
        stroke: #7592cc;
        stroke-miterlimit: 10;
        stroke-width: 1.63px;
      }

      .cls-2 {
        fill: #7592cc;
      }
    </style>
  </defs>
  <g id="Layer_1-2" data-name="Layer 1">
    <g>
      <path class="cls-1" d="M.82,27.32v-.54c.52-1.63.93-3.29,1.43-4.92.54-1.73.74-2.55,2-3.9,1.5-1.62,3.21-3.24,4.77-4.83,2.43-2.45,4.89-4.87,7.32-7.32l6.95,6.94-12.31,12.31c-2.4,1.98-5.92,2.17-8.81,3.21-.67.05-1.13-.37-1.36-.96Z"/>
      <path class="cls-1" d="M23.08.83c.28.03.78.2,1.04.33.71.34,2.79,2.45,3.36,3.13,1.12,1.32,1.06,3.05-.05,4.35-.82.96-1.92,1.81-2.76,2.76l-6.95-6.94c1.24-1.01,2.5-3.03,4.06-3.5.12-.03.39-.11.49-.12.2-.02.6-.02.8,0Z"/>
      <path class="cls-2" d="M12.93,25.4h14.14c1.66.34,1.58,2.64-.1,2.88h-14c-1.61-.3-1.64-2.54-.04-2.88Z"/>
    </g>
  </g>
</svg>