<?xml version="1.0" encoding="UTF-8"?>
<svg id="Layer_2" data-name="Layer 2" xmlns="http://www.w3.org/2000/svg" viewBox="0 0 22.29 27.79">
  <defs>
    <style>
      .cls-1 {
        fill: #7592cc;
      }
    </style>
  </defs>
  <g id="Layer_1-2" data-name="Layer 1">
    <g>
      <path class="cls-1" d="M10.32.04c5.75-.55,9.78,5.49,6.78,10.5s-10.07,4.36-12.32-.76C2.93,5.55,5.68.48,10.32.04ZM10.91,2.77c-3.43.19-5.18,4.25-2.95,6.88,1.71,2.03,4.91,1.91,6.51-.19,2.14-2.83-.04-6.88-3.56-6.69Z"/>
      <path class="cls-1" d="M3.25,18.55c5.69-5.69,15.41-3.62,18.28,3.87.41,1.08.88,3.09.73,4.22-.2,1.48-2.54,1.61-2.78-.08-.09-.63-.04-1.24-.18-1.91-1.59-7.64-12.11-8.98-15.63-2-.75,1.49-.69,2.49-.91,4.05-.2,1.45-2.57,1.46-2.73-.06-.3-2.74,1.31-6.19,3.22-8.09Z"/>
    </g>
  </g>
</svg>