<?xml version="1.0" encoding="UTF-8"?>
<svg id="Layer_2" data-name="Layer 2" xmlns="http://www.w3.org/2000/svg" viewBox="0 0 29.22 27.98">
  <defs>
    <style>
      .cls-1 {
        fill: #7592cc;
      }
    </style>
  </defs>
  <g id="Layer_1-2" data-name="Layer 1">
    <g>
      <path class="cls-1" d="M0,3.31C.18,1.61,1.5.18,3.22,0h20.61c1.78.24,3.05,1.67,3.17,3.45v11.73c1.45-.12,2.64,1.52,2.02,2.85-.19.41-.65.72-.94,1.06,1.05.86,1.61,1.94.63,3.14-1.05,1.27-2.54.89-3.45-.31-.3.26-.55.62-.88.83-1.09.68-2.49,0-2.91-1.14l-.17-.94-4.54,6.56c-.91,1.15-2.81.96-3.48-.35-.04-.09-.21-.48-.21-.54v-5.85H3.4c-1.74,0-3.25-1.71-3.4-3.37V3.31ZM22.43,19.12c-.25-.33-.6-.57-.82-.92-1.1-1.75,1.32-3.95,2.94-2.65.25.2.47.5.71.71l.43-.49V3.74c-.08-1.31-.74-2.23-2.08-2.43H3.45c-1.06.07-1.94.92-2.08,1.97v13.98c.03.73,1.1,1.86,1.8,1.86h11.13l.09.09v6.91s.16.27.2.32c.3.34.79.31,1.12.03l5.11-7.33h1.63ZM23.27,16.51c-.37.07-.7.57-.56.93.13.32,1.6,1.54,1.6,1.65-.38.5-1.21,1.04-1.53,1.55-.34.55.31,1.22.83,1l1.64-1.61,1.61,1.59c.53.27,1.17-.35.95-.89-.15-.36-1.23-1.14-1.5-1.52l-.06-.12,1.57-1.63c.21-.5-.43-1.14-.93-.93l-1.64,1.61-1.57-1.57c-.12-.1-.26-.11-.41-.08Z"/>
      <path class="cls-1" d="M15.86,9.32c1.73-.09,1.9,2.45.32,2.66-1.92.26-2.13-2.57-.32-2.66Z"/>
      <path class="cls-1" d="M10.12,11.62c-1.3-1.3.69-3.16,1.92-1.89,1.2,1.24-.71,3.11-1.92,1.89Z"/>
      <path class="cls-1" d="M20.77,9.32c1.7-.06,1.87,2.5.21,2.67-1.87.19-2.04-2.6-.21-2.67Z"/>
      <path class="cls-1" d="M6.15,9.32c1.71-.05,1.86,2.5.21,2.67-1.88.19-1.99-2.62-.21-2.67Z"/>
    </g>
  </g>
</svg>